<svg width="322" height="240" viewBox="0 0 322 240" fill="none" xmlns="http://www.w3.org/2000/svg">
<path fill-rule="evenodd" clip-rule="evenodd" d="M322 0H0V240H322V0ZM120 8C58.1441 8 8 58.1441 8 120C8 181.856 58.1441 232 120 232H202C263.856 232 314 181.856 314 120C314 58.1441 263.856 8 202 8H120Z" fill="#A5EE9D"/>
<g filter="url(#filter0_d_112_14)">
<path fill-rule="evenodd" clip-rule="evenodd" d="M202 10H120C59.2487 10 10 59.2487 10 120C10 180.751 59.2487 230 120 230H202C262.751 230 312 180.751 312 120C312 59.2487 262.751 10 202 10ZM120 8C58.1441 8 8 58.1441 8 120C8 181.856 58.1441 232 120 232H202C263.856 232 314 181.856 314 120C314 58.1441 263.856 8 202 8H120Z" fill="black"/>
</g>
<defs>
<filter id="filter0_d_112_14" x="4" y="8" width="314" height="232" filterUnits="userSpaceOnUse" color-interpolation-filters="sRGB">
<feFlood flood-opacity="0" result="BackgroundImageFix"/>
<feColorMatrix in="SourceAlpha" type="matrix" values="0 0 0 0 0 0 0 0 0 0 0 0 0 0 0 0 0 0 127 0" result="hardAlpha"/>
<feOffset dy="4"/>
<feGaussianBlur stdDeviation="2"/>
<feComposite in2="hardAlpha" operator="out"/>
<feColorMatrix type="matrix" values="0 0 0 0 0 0 0 0 0 0 0 0 0 0 0 0 0 0 0.25 0"/>
<feBlend mode="normal" in2="BackgroundImageFix" result="effect1_dropShadow_112_14"/>
<feBlend mode="normal" in="SourceGraphic" in2="effect1_dropShadow_112_14" result="shape"/>
</filter>
</defs>
</svg>
