<svg width="470" height="172" viewBox="0 0 470 172" fill="none" xmlns="http://www.w3.org/2000/svg">
<path d="M71.784 71.192C71.112 71.384 70.008 71.624 68.472 71.912C68.232 71.96 67.344 72.152 65.808 72.488C64.272 72.824 62.76 73.28 61.272 73.856L60.336 70.112C60.096 71.216 59.544 72.104 58.68 72.776C57.864 73.4 56.592 73.784 54.864 73.928C54 74.024 52.344 74.072 49.896 74.072C47.496 74.072 45.84 74.024 44.928 73.928C43.392 73.784 42.24 73.592 41.472 73.352C40.704 73.064 40.152 72.608 39.816 71.984C39.528 71.312 39.384 70.352 39.384 69.104V65.072C38.712 67.616 37.8 70.376 36.648 73.352C34.296 72.344 31.512 71.36 28.296 70.4V73.64H16.56V49.664L5.472 50.816H15.912V56.864H12.816V58.16H15.912V63.848H12.816V65.36C14.16 65.168 15.192 65 15.912 64.856C15.816 66.392 15.768 68.864 15.768 72.272C11.736 73.232 7.44 73.856 2.88 74.144C2.64 70.832 2.304 68.144 1.872 66.08H5.4V63.848H2.304V58.16H5.4V56.864H2.304V50.816H2.592C2.304 47.984 1.752 45.392 0.936 43.04L3.96 42.896V26.408H2.088V19.856H30.6V20.432H43.272V18.488H56.088V20.432H70.344V28.424H56.088V29.576H69.768V47.576H29.664V29.576H43.272V28.424H29.016V26.408H28.296V67.016C29.16 65.336 29.808 63.704 30.24 62.12C30.72 60.536 31.128 58.64 31.464 56.432L40.752 57.224L41.4 55.856H29.016V48.656H70.344V55.856H53.064L57.888 56.792L56.592 60.32L58.68 60.608C58.536 59.312 58.464 58.016 58.464 56.72L67.968 56.504C68.064 59.576 68.376 62.144 68.904 64.208C69.48 66.224 70.44 68.552 71.784 71.192ZM16.56 27.92V26.408H14.4V27.92H16.56ZM16.56 33.536H14.4V34.976H16.56V33.536ZM41.976 36.992H40.536V40.088H41.976V36.992ZM50.76 40.088V36.992H49.176V40.088H50.76ZM57.96 40.088H59.472V36.992H57.96V40.088ZM14.4 40.664V42.392L16.56 42.32V40.664H14.4ZM47.952 60.608C44.928 60.032 42.432 59.672 40.464 59.528L40.32 60.608H47.952ZM49.968 64.352C50.4 64.352 50.712 64.256 50.904 64.064C51.096 63.872 51.192 63.536 51.192 63.056C51.192 62.576 51.12 61.976 50.976 61.256C50.352 61.064 49.824 60.944 49.392 60.896V63.128C49.392 63.656 49.44 63.992 49.536 64.136C49.632 64.28 49.776 64.352 49.968 64.352ZM130.104 39.08C130.44 37.928 130.656 36.608 130.752 35.12H128.592V66.296C128.592 68.552 128.136 70.208 127.224 71.264C126.36 72.272 124.68 72.968 122.184 73.352C119.736 73.688 115.8 73.856 110.376 73.856C110.376 71.312 110.04 68.6 109.368 65.72C109.032 67.352 108.552 69.344 107.928 71.696C106.2 70.736 104.184 69.824 101.88 68.96C99.576 68.096 97.392 67.448 95.328 67.016V74.216H79.92V58.16C78.864 58.64 77.976 58.976 77.256 59.168C77.064 55.232 76.776 51.896 76.392 49.16C76.008 46.376 75.24 43.496 74.088 40.52C77.304 40.52 79.416 39.608 80.424 37.784C80.904 36.872 81.144 33.944 81.144 29C81.144 25.352 81.024 22.208 80.784 19.568L97.344 19.64C97.248 24.104 97.056 27.872 96.768 30.944C99.216 27.584 100.44 23.6 100.44 18.992L114.408 19.136C114.312 20.288 114.216 21.152 114.12 21.728H144.504C144.504 25.616 144.456 28.808 144.36 31.304C144.312 33.8 144.12 36.392 143.784 39.08H130.104ZM110.52 59.672C111.816 59.624 112.728 59.528 113.256 59.384C113.784 59.192 114.096 58.976 114.192 58.736C114.288 58.496 114.336 58.088 114.336 57.512V35.12H110.232C109.8 36.128 109.104 37.448 108.144 39.08L112.68 39.584C112.152 47.6 111.432 54.296 110.52 59.672ZM142.128 40.232C142.176 44.84 142.464 49.16 142.992 53.192C143.52 57.176 144.36 62.408 145.512 68.888C143.352 69.08 140.928 69.416 138.24 69.896C135.6 70.328 133.344 70.808 131.472 71.336C130.8 63.512 130.392 53.264 130.248 40.592L142.128 40.232ZM95.328 66.296C96.288 63.464 97.224 60.56 98.136 57.584C99.048 54.56 99.816 51.776 100.44 49.232L98.496 51.176C98.208 50.264 97.824 48.848 97.344 46.928C96.72 44.144 96.096 41.912 95.472 40.232L95.328 40.808V66.296ZM221.832 48.44C219.432 48.728 215.832 49.208 211.032 49.88C213.48 50.36 216.096 50.672 218.88 50.816C218.88 58.544 218.64 63.776 218.16 66.512C217.728 69.2 216.696 70.952 215.064 71.768C213.48 72.584 210.288 73.208 205.488 73.64C200.976 74.024 197.256 74.216 194.328 74.216C191.112 74.216 187.248 74.048 182.736 73.712C178.8 73.424 175.752 72.992 173.592 72.416C171.432 71.792 169.848 70.856 168.84 69.608C167.832 68.312 167.328 66.488 167.328 64.136C167.328 62.984 167.376 62.072 167.472 61.4L171.648 25.328H181.584C180.432 22.352 179.664 20.312 179.28 19.208L193.464 18.56C195.576 23.456 197.352 27.824 198.792 31.664C200.232 35.504 202.056 40.664 204.264 47.144C203.88 47.24 203.616 47.288 203.472 47.288C204.192 47.672 205.008 48.032 205.92 48.368C205.2 45.008 204.24 41.672 203.04 38.36C201.888 35 199.968 29.984 197.28 23.312C196.896 22.256 196.656 21.632 196.56 21.44L210.744 20.36C212.952 24.968 214.776 29.12 216.216 32.816C217.656 36.512 219.528 41.72 221.832 48.44ZM169.632 23.888C169.056 37.712 167.496 52.952 164.952 69.608C161.736 67.976 158.904 66.704 156.456 65.792C154.008 64.832 151.296 64.088 148.32 63.56C150.48 57.56 151.968 51.44 152.784 45.2C153.6 38.912 154.056 31.808 154.152 23.888H169.632ZM200.304 58.016C201.408 57.872 202.152 57.416 202.536 56.648C202.92 55.832 203.112 54.464 203.112 52.544C203.112 51.92 203.064 50.216 202.968 47.432L189.144 50.384C188.472 46.976 187.704 43.712 186.84 40.592L184.968 54.344C184.92 54.632 184.896 55.016 184.896 55.496C184.896 56.552 185.136 57.224 185.616 57.512C186.144 57.752 187.008 57.92 188.208 58.016C190.416 58.16 192.72 58.232 195.12 58.232C197.568 58.232 199.296 58.16 200.304 58.016ZM296.64 40.952C296.256 41.672 295.512 42.848 294.408 44.48L293.112 46.496H294.12V52.76H290.304L290.232 64.208H293.4V71.696H290.232V73.856H275.832V71.84L228.528 72.344V64.64H230.976V52.76H228.888V51.176C228.024 51.08 226.416 50.912 224.064 50.672C225.36 49.136 226.224 47.48 226.656 45.704C227.136 43.928 227.376 41.84 227.376 39.44V33.752H263.016V37.856L265.32 36.992H264.528V31.52H265.608C265.272 30.368 264.864 29.336 264.384 28.424C263.904 27.464 263.448 26.84 263.016 26.552L263.088 26.48H250.92V27.416H263.016V32.744H227.088V27.416H239.184V26.48H226.296V20.072H239.184V18.56H250.92V20.072H263.808V26.264C264.048 26.216 264.6 26.12 265.464 25.976C266.376 25.784 267.048 25.568 267.48 25.328C268.104 24.992 268.488 24.488 268.632 23.816C268.776 23.096 268.824 21.704 268.776 19.64H287.568V22.448C287.568 23.696 287.784 24.32 288.216 24.32C288.36 24.32 288.504 24.176 288.648 23.888C288.792 23.552 288.864 23.096 288.864 22.52C288.864 21.464 288.792 20.504 288.648 19.64C291.96 20.6 294.336 21.176 295.776 21.368C295.68 24.344 295.488 26.504 295.2 27.848C294.912 29.192 294.504 30.056 293.976 30.44C293.496 30.776 292.728 30.944 291.672 30.944H282.456C281.496 30.944 280.776 30.848 280.296 30.656C279.816 30.416 279.48 29.96 279.288 29.288C279.096 28.568 279 27.44 279 25.904H277.848C277.752 27.008 277.56 27.944 277.272 28.712C277.032 29.432 276.648 30.08 276.12 30.656C275.976 30.848 275.664 31.136 275.184 31.52L292.464 31.448L295.56 35.768C295.176 35.864 294.888 35.984 294.696 36.128C294.504 36.272 294.312 36.44 294.12 36.632C294.12 36.632 293.28 37.472 291.6 39.152L290.376 40.376L292.104 40.592C294.264 40.784 295.776 40.904 296.64 40.952ZM274.464 36.992C275.184 37.52 276.24 38.144 277.632 38.864C278.736 38.384 279.744 37.76 280.656 36.992H274.464ZM241.2 39.872V38.504H238.536V39.872H241.2ZM249.264 38.504V39.872H252.216V38.504H249.264ZM263.016 41.312C265.032 41.36 266.88 41.312 268.56 41.168C267.264 40.592 265.416 39.728 263.016 38.576V41.312ZM264.744 46.496C264.36 45.44 263.784 44.408 263.016 43.4V45.344H238.464L238.392 46.496H264.744ZM281.16 45.272C279.672 45.608 277.368 46.016 274.248 46.496H286.776C285.432 46.256 283.56 45.848 281.16 45.272ZM245.376 53.84H275.904V52.76H245.376V53.84ZM245.376 59.168H275.904V58.016H245.376V59.168ZM245.376 63.416V64.496L275.832 64.352V63.416H245.376ZM309.312 59.384C311.472 59.384 313.272 60.224 314.712 61.904C316.2 63.536 316.944 65.816 316.944 68.744C316.944 71.144 316.512 73.664 315.648 76.304C314.832 78.944 313.68 81.08 312.192 82.712H306.072C308.088 79.976 309.36 77.288 309.888 74.648C307.392 74.648 305.4 73.904 303.912 72.416C302.424 70.928 301.68 69.128 301.68 67.016C301.68 64.904 302.424 63.104 303.912 61.616C305.4 60.128 307.2 59.384 309.312 59.384Z" fill="#5CAF55"/>
<path d="M0 81.2H302.47V84.8H0V81.2ZM316.975 81.2H319.104V84.8H316.975V81.2Z" fill="#5CAF55"/>
<path d="M69.696 119.752C62.4 124.168 54.552 128.68 46.152 133.288V150.136C46.152 152.872 44.904 154.936 42.408 156.328C39.96 157.672 36.384 158.584 31.68 159.064C26.976 159.496 20.448 159.712 12.096 159.712C11.28 156.256 10.488 153.328 9.72 150.928C8.952 148.48 7.776 145.768 6.192 142.792C14.976 143.224 20.76 143.44 23.544 143.44C25.512 143.44 26.808 143.368 27.432 143.224C28.056 143.032 28.368 142.768 28.368 142.432V124.72H32.616L34.2 123.784C35.832 122.824 37.104 122.056 38.016 121.48H2.952V106.72H66.24L69.696 119.752ZM145.08 143.08V153.088H137.304V159.784H124.488V153.088H115.2V143.08H124.488V141.064H122.184L121.824 142.432L114.048 141.064L114.12 152.44C114.168 154.6 113.832 156.208 113.112 157.264C112.392 158.32 111.096 159.088 109.224 159.568C107.352 160 104.424 160.336 100.44 160.576C99.432 158.224 98.424 156.256 97.416 154.672C96.408 153.04 95.016 151.408 93.24 149.776C95.976 149.728 98.088 149.656 99.576 149.56C101.112 149.464 101.952 149.368 102.096 149.272C102.288 149.128 102.36 148.792 102.312 148.264H90.864L89.784 155.176L89.064 160.072C83.784 158.776 79.368 158.056 75.816 157.912C77.16 154.6 78.048 151.432 78.48 148.408C78.912 145.336 79.128 141.808 79.128 137.824L79.056 130.624V130.552C78.72 130.792 78.216 131.2 77.544 131.776C77.304 129.616 76.824 127.36 76.104 125.008C75.432 122.656 74.544 120.472 73.44 118.456C76.176 116.584 78.384 114.4 80.064 111.904C81.792 109.408 82.656 106.936 82.656 104.488H94.68L94.248 106.504H110.088L111.744 113.272L109.872 116.08H113.328V106.576H144.72C144.72 112.768 144.624 118.336 144.432 123.28C144.384 124.576 144.144 125.584 143.712 126.304C143.328 126.976 142.632 127.504 141.624 127.888C140.664 128.272 139.224 128.536 137.304 128.68V131.992H144.72V141.064H137.304V143.08H145.08ZM91.944 114.568L91.368 115.936H96.408L97.416 114.568H91.944ZM113.832 116.224L113.904 120.76C116.976 119.272 119.208 117.76 120.6 116.224H113.832ZM131.616 116.224C131.088 117.856 130.392 119.44 129.528 120.976C130.536 120.976 131.232 120.952 131.616 120.904C132.048 120.808 132.288 120.688 132.336 120.544C132.432 120.4 132.48 120.184 132.48 119.896V116.224H131.616ZM124.488 131.992V128.464H129.816C129.48 126.64 128.904 124.864 128.088 123.136C126.36 125.632 124.2 127.912 121.608 129.976L123.552 130.048L123.408 131.992H124.488ZM113.976 138.112C114.6 136.144 115.032 134.32 115.272 132.64C115.56 130.96 115.728 129.952 115.776 129.616L119.448 129.832C117.192 127.384 115.344 125.584 113.904 124.432L113.976 138.112ZM92.52 128.824V124.936H90.864V128.824H92.52ZM101.376 128.824H103.104V124.936H101.376V128.824ZM90.792 135.304L90.648 139.336H92.52V135.304H90.792ZM103.104 135.304H101.376V139.336H103.176L103.104 135.304ZM204.984 125.08C205.32 123.928 205.536 122.608 205.632 121.12H203.472V152.296C203.472 154.552 203.016 156.208 202.104 157.264C201.24 158.272 199.56 158.968 197.064 159.352C194.616 159.688 190.68 159.856 185.256 159.856C185.256 157.312 184.92 154.6 184.248 151.72C183.912 153.352 183.432 155.344 182.808 157.696C181.08 156.736 179.064 155.824 176.76 154.96C174.456 154.096 172.272 153.448 170.208 153.016V160.216H154.8V144.16C153.744 144.64 152.856 144.976 152.136 145.168C151.944 141.232 151.656 137.896 151.272 135.16C150.888 132.376 150.12 129.496 148.968 126.52C152.184 126.52 154.296 125.608 155.304 123.784C155.784 122.872 156.024 119.944 156.024 115C156.024 111.352 155.904 108.208 155.664 105.568L172.224 105.64C172.128 110.104 171.936 113.872 171.648 116.944C174.096 113.584 175.32 109.6 175.32 104.992L189.288 105.136C189.192 106.288 189.096 107.152 189 107.728H219.384C219.384 111.616 219.336 114.808 219.24 117.304C219.192 119.8 219 122.392 218.664 125.08H204.984ZM185.4 145.672C186.696 145.624 187.608 145.528 188.136 145.384C188.664 145.192 188.976 144.976 189.072 144.736C189.168 144.496 189.216 144.088 189.216 143.512V121.12H185.112C184.68 122.128 183.984 123.448 183.024 125.08L187.56 125.584C187.032 133.6 186.312 140.296 185.4 145.672ZM217.008 126.232C217.056 130.84 217.344 135.16 217.872 139.192C218.4 143.176 219.24 148.408 220.392 154.888C218.232 155.08 215.808 155.416 213.12 155.896C210.48 156.328 208.224 156.808 206.352 157.336C205.68 149.512 205.272 139.264 205.128 126.592L217.008 126.232ZM170.208 152.296C171.168 149.464 172.104 146.56 173.016 143.584C173.928 140.56 174.696 137.776 175.32 135.232L173.376 137.176C173.088 136.264 172.704 134.848 172.224 132.928C171.6 130.144 170.976 127.912 170.352 126.232L170.208 126.808V152.296ZM294.84 119.68V131.992H292.248V160.288H277.704V131.992H275.328C274.896 137.752 273.96 142.456 272.52 146.104C271.128 149.752 268.992 152.776 266.112 155.176C263.28 157.528 259.368 159.52 254.376 161.152C252.456 158.464 250.68 156.232 249.048 154.456C247.464 152.632 245.4 150.832 242.856 149.056C246.456 148.48 249.432 147.688 251.784 146.68C254.184 145.672 256.104 144.376 257.544 142.792H242.496C242.448 146.968 242.256 150.28 241.92 152.728C241.632 155.128 241.032 157.6 240.12 160.144C237.912 159.328 235.416 158.584 232.632 157.912C229.848 157.192 227.112 156.64 224.424 156.256C225.816 153.76 226.752 150.904 227.232 147.688C227.712 144.424 227.952 139.36 227.952 132.496V119.104H259.488V140.056C260.496 138.184 261.168 136 261.504 133.504C261.888 130.96 262.08 127.864 262.08 124.216C262.08 121.816 262.056 119.968 262.008 118.672L261.792 106.432L293.976 104.92L293.904 108.16V117.016L275.76 117.952V119.68H294.84ZM227.232 105.568H259.776V117.304H227.232V105.568ZM249.048 132.136V129.184H242.568V132.136H249.048ZM326.952 130.12H310.392V127.456H302.832V115.72H328.032V114.64H304.2V105.856H366.84V114.64H343.008V115.72H368.208V127.456H360.72V130.12H344.16V126.16H353.232V125.08H344.16V120.976H353.232V119.968H343.008V130.336H328.032V119.968H317.808V120.976H326.952V125.08H317.808V126.16H326.952V130.12ZM369.432 138.544H343.872L343.728 139.624H368.136V154.168C368.136 155.464 367.848 156.496 367.272 157.264C366.744 157.984 365.52 158.56 363.6 158.992C361.728 159.376 358.896 159.568 355.104 159.568H352.656C352.608 159.328 352.44 158.248 352.152 156.328C351.912 154.408 351.432 152.656 350.712 151.072V157.048H336.888V147.328H334.224V157.048H320.4V147.328H317.376V159.352H302.904V139.624H326.664L326.808 138.544H301.608V131.272H369.432V138.544ZM353.52 147.328H350.712V149.272C351.096 149.32 351.576 149.344 352.152 149.344C353.064 149.344 353.52 149.176 353.52 148.84V148.696V147.76V147.328Z" fill="black"/>
</svg>
